<svg version="1.1" id="Layer_1" xmlns="http://www.w3.org/2000/svg" xmlns:xlink="http://www.w3.org/1999/xlink" x="0px" y="0px"
	 width="100%" viewBox="0 0 1600 969" enable-background="new 0 0 1600 969" xml:space="preserve">
<path fill="#F7F7F7" opacity="1.000000" stroke="none" 
	d="
M909.000000,970.000000 
	C606.000000,970.000000 303.500000,970.000000 1.000000,970.000000 
	C1.000000,647.000000 1.000000,324.000000 1.000000,1.000000 
	C534.333313,1.000000 1067.666626,1.000000 1601.000000,1.000000 
	C1601.000000,324.000000 1601.000000,647.000000 1601.000000,970.000000 
	C1370.500000,970.000000 1140.000000,970.000000 909.000000,970.000000 
M1174.000977,480.500000 
	C1174.000977,385.725128 1174.000977,290.950256 1174.000977,196.145157 
	C930.528992,196.145157 687.509521,196.145157 444.166382,196.145157 
	C444.166382,197.767532 444.166382,199.073303 444.166412,200.379089 
	C444.166931,358.860199 444.166473,517.341309 444.171570,675.822449 
	C444.171783,681.591858 447.540283,685.444519 453.340912,686.001648 
	C457.148254,686.367310 460.992859,686.477356 464.820770,686.477722 
	C693.960205,686.498779 923.099609,686.498718 1152.239014,686.478210 
	C1156.234253,686.477905 1160.237061,686.311951 1164.223145,686.034119 
	C1170.761597,685.578491 1174.000366,682.012207 1174.000610,675.476929 
	C1174.002563,610.817932 1174.001343,546.158997 1174.000977,480.500000 
z"/>
<path fill="#000102" opacity="1.000000" stroke="none" 
	d="
M1174.000977,481.000000 
	C1174.001343,546.158997 1174.002563,610.817932 1174.000610,675.476929 
	C1174.000366,682.012207 1170.761597,685.578491 1164.223145,686.034119 
	C1160.237061,686.311951 1156.234253,686.477905 1152.239014,686.478210 
	C923.099609,686.498718 693.960205,686.498779 464.820770,686.477722 
	C460.992859,686.477356 457.148254,686.367310 453.340912,686.001648 
	C447.540283,685.444519 444.171783,681.591858 444.171570,675.822449 
	C444.166473,517.341309 444.166931,358.860199 444.166412,200.379089 
	C444.166382,199.073303 444.166382,197.767532 444.166382,196.145157 
	C687.509521,196.145157 930.528992,196.145157 1174.000977,196.145157 
	C1174.000977,290.950256 1174.000977,385.725128 1174.000977,481.000000 
M867.317688,290.074188 
	C871.157166,296.507477 875.125610,302.868835 878.773254,309.409088 
	C880.248230,312.053802 881.913391,313.139709 885.020508,313.086243 
	C896.180969,312.894104 907.351196,312.835907 918.507874,313.117584 
	C922.081726,313.207825 923.994995,311.853516 925.604309,308.980316 
	C930.973877,299.393982 936.578430,289.936981 941.801880,280.273132 
	C942.640747,278.721069 942.736145,275.957123 941.909668,274.445129 
	C936.163330,263.932465 930.160583,253.555954 924.005554,243.276169 
	C923.284485,242.071854 921.145142,241.105011 919.643616,241.076859 
	C907.983337,240.858154 896.316589,240.995651 884.656006,240.787125 
	C881.721741,240.734665 880.172363,241.798111 878.798706,244.281174 
	C875.416687,250.394592 871.930847,256.472382 868.056519,262.277313 
	C866.997742,263.863617 864.419128,265.333282 862.532898,265.339691 
	C797.052673,265.562592 731.571838,265.580902 666.091187,265.684143 
	C646.608032,265.714874 627.105103,265.400116 607.647034,266.160553 
	C583.047485,267.121918 560.592957,275.204254 540.922119,290.023590 
	C489.401276,328.837769 476.169952,400.962921 510.521179,455.541840 
	C529.049744,484.980896 555.520752,503.108856 589.822083,509.527069 
	C608.120361,512.950867 626.594971,512.886841 645.098572,512.140991 
	C647.671692,512.037231 650.252625,512.126648 652.734253,512.126648 
	C652.734253,505.126099 652.734253,499.023163 652.734253,492.000519 
	C639.835693,492.000519 627.207336,492.130707 614.582458,491.974945 
	C582.715698,491.581818 555.938416,480.234131 535.340393,455.286133 
	C509.206970,423.633759 504.409851,380.301331 521.581665,344.913605 
	C539.824524,307.318909 570.971619,286.602875 613.119995,286.212769 
	C695.756531,285.447815 778.404236,285.862579 861.046997,285.979614 
	C863.000244,285.982391 864.950317,288.235779 867.317688,290.074188 
M984.573059,285.262268 
	C989.405945,285.292664 994.241699,285.226715 999.071228,285.370758 
	C1016.851807,285.901031 1034.310181,288.124176 1050.381104,296.447510 
	C1092.644287,318.336060 1114.445801,366.021637 1103.477783,412.344971 
	C1093.364014,455.059875 1059.190308,486.158234 1015.573853,490.927185 
	C999.911316,492.639709 983.972839,492.105774 968.159912,492.117828 
	C898.993469,492.170563 829.826843,492.017731 760.660339,492.072052 
	C757.054382,492.074890 754.818909,491.089783 753.044006,487.943817 
	C749.036316,480.840118 744.864319,473.820557 740.482056,466.943329 
	C739.503357,465.407440 737.398315,463.631226 735.788330,463.608154 
	C723.626953,463.433777 711.458130,463.597504 699.296753,463.878571 
	C697.956116,463.909576 696.107666,465.020081 695.409912,466.180328 
	C689.488159,476.026245 683.613403,485.910461 678.152161,496.014374 
	C677.122253,497.919861 677.110840,501.325745 678.134155,503.231262 
	C683.330627,512.907654 689.129639,522.258362 694.474976,531.858215 
	C696.043396,534.675049 697.875671,536.014832 701.118469,535.981201 
	C710.780762,535.880981 720.462097,535.632507 730.102783,536.110535 
	C736.654358,536.435303 741.413879,535.123352 743.268738,528.116577 
	C743.677673,526.571838 745.198486,525.347107 745.752075,523.810913 
	C749.291931,513.988770 756.396729,512.040161 766.295410,512.103516 
	C841.290588,512.583435 916.289307,512.534912 991.286926,512.574585 
	C1016.898560,512.588135 1041.877686,509.441132 1064.393799,495.931183 
	C1100.339233,474.363434 1121.244019,442.676880 1125.725586,401.044037 
	C1129.363892,367.245483 1119.921143,336.722137 1098.672241,310.083679 
	C1083.015015,290.455322 1062.830933,277.639557 1038.708496,270.743622 
	C1017.222046,264.601257 995.281067,264.659088 973.266663,265.287750 
	C970.659668,265.362213 968.060242,265.704865 965.339844,265.933044 
	C965.339844,272.663452 965.339844,278.891418 965.339844,285.270874 
	C971.653687,285.270874 977.626892,285.270874 984.573059,285.262268 
M578.486084,390.499817 
	C578.486084,397.249207 578.486084,403.998627 578.486084,411.258453 
	C594.057861,411.258453 608.824768,411.258453 624.344177,411.258453 
	C624.344177,425.866852 624.344177,439.950836 624.344177,454.423462 
	C638.312866,454.423462 651.516479,454.423462 665.335938,454.423462 
	C665.335938,439.857239 665.335938,425.617523 665.335938,410.873230 
	C680.023376,410.873230 694.098694,410.873230 708.447510,410.873230 
	C708.447510,397.190125 708.447510,384.147400 708.447510,370.335388 
	C693.835693,370.335388 679.615112,370.335388 665.014282,370.335388 
	C665.014282,354.956085 665.014282,340.342865 665.014282,325.461212 
	C651.393494,325.461212 638.184204,325.461212 624.246704,325.461212 
	C624.246704,340.534729 624.246704,355.305298 624.246704,370.731201 
	C616.039001,370.731201 608.554199,370.731171 601.069397,370.731171 
	C593.651062,370.731171 586.232788,370.731201 578.486389,370.731201 
	C578.486389,377.548706 578.486389,383.524597 578.486084,390.499817 
M610.881287,594.501099 
	C610.881226,603.663757 610.875122,612.826477 610.883179,621.989136 
	C610.888794,628.319458 610.804932,634.652710 610.971863,640.979065 
	C611.069397,644.675049 612.810669,647.585999 616.783325,647.910889 
	C621.004150,648.255981 623.744568,645.996521 624.612976,641.809998 
	C624.913208,640.362671 624.851257,638.828125 624.854065,637.333191 
	C624.872314,627.670776 624.862671,618.008423 624.862366,608.346008 
	C624.862183,603.181763 624.862305,598.017517 624.862305,592.853210 
	C626.221313,594.156677 626.668274,595.534424 627.026428,596.934875 
	C630.651917,611.111206 634.185303,625.311768 637.914307,639.460754 
	C639.512451,645.524902 642.572083,648.109863 647.437561,647.954651 
	C652.722412,647.785950 654.837524,644.130859 656.057007,639.685242 
	C657.112793,635.836243 658.064209,631.958435 659.046021,628.089417 
	C662.096558,616.069031 665.139526,604.046814 668.185486,592.025269 
	C669.099243,594.236023 669.098328,596.330872 669.099487,598.425720 
	C669.106506,611.086731 669.112854,623.747742 669.123291,636.408752 
	C669.124390,637.741272 669.059570,639.082092 669.181274,640.404724 
	C669.612488,645.091858 672.357849,647.976807 676.262939,647.941895 
	C680.152222,647.907104 683.014648,644.889526 683.039185,640.216797 
	C683.133728,622.225220 683.011780,604.232483 683.123230,586.241150 
	C683.193787,574.853333 684.599915,571.289001 667.864563,571.742249 
	C662.819946,571.878845 659.903198,573.777649 658.634155,578.866760 
	C655.576660,591.128723 652.187012,603.307983 648.902771,615.512939 
	C648.472107,617.113464 647.874756,618.669250 647.354675,620.245728 
	C645.935791,618.423096 645.451355,616.848999 645.022949,615.259705 
	C641.690613,602.896790 638.338074,590.539185 635.063660,578.160889 
	C634.117065,574.582397 632.265930,571.910645 628.317627,572.014648 
	C622.713623,572.162109 616.434814,569.703857 612.018738,575.271301 
	C611.104614,576.423767 610.987366,578.399597 610.937012,580.009460 
	C610.796692,584.503113 610.884033,589.003967 610.881287,594.501099 
M1069.182129,607.490540 
	C1069.182129,612.172546 1069.182129,616.854492 1069.182129,621.536499 
	C1060.606934,610.490845 1053.211182,599.270935 1045.789062,588.068359 
	C1042.666016,583.354736 1039.597534,578.598755 1036.296875,574.011169 
	C1034.014771,570.839355 1030.607544,569.952148 1026.942139,570.948181 
	C1023.216125,571.960754 1021.100098,574.597046 1020.709900,578.505066 
	C1020.594299,579.663147 1020.419495,580.823914 1020.418335,581.983582 
	C1020.399780,600.634949 1020.394836,619.286316 1020.424255,637.937622 
	C1020.426636,639.425293 1020.176819,641.336670 1020.962036,642.312866 
	C1022.672974,644.440125 1024.702271,646.988770 1027.103027,647.721680 
	C1030.532593,648.768677 1033.135742,646.379517 1034.097412,642.919250 
	C1034.622070,641.031189 1034.799805,638.995361 1034.810791,637.024414 
	C1034.874878,625.534302 1034.843018,614.043579 1034.843628,602.553101 
	C1034.843750,600.894043 1034.843750,599.235046 1034.843750,597.575989 
	C1037.006348,599.045837 1037.984497,600.581421 1038.985229,602.102173 
	C1047.584229,615.168640 1056.100708,628.290771 1064.827026,641.271729 
	C1068.973999,647.440491 1073.407959,649.451782 1078.113159,647.618774 
	C1083.718506,645.435181 1083.164429,640.383484 1083.174072,635.742188 
	C1083.209351,618.756226 1083.194092,601.770081 1083.169800,584.783997 
	C1083.165771,581.955994 1083.318726,579.079773 1082.865356,576.313171 
	C1082.343628,573.127747 1080.497314,570.880127 1076.879883,570.658875 
	C1073.173950,570.432373 1070.769043,572.070312 1069.841309,575.598206 
	C1069.383301,577.340332 1069.231079,579.204041 1069.217163,581.014832 
	C1069.152344,589.507446 1069.183838,598.000671 1069.182129,607.490540 
M489.719788,647.913269 
	C498.843231,648.207336 507.508026,646.519348 515.907104,642.771790 
	C523.015320,639.600159 526.611084,634.827820 525.731750,626.861145 
	C525.386658,623.734680 525.727173,620.537720 525.649780,617.375427 
	C525.468323,609.963196 523.205994,607.524170 515.763123,607.212708 
	C510.276733,606.983215 504.773163,607.076111 499.278931,607.150085 
	C494.143402,607.219177 490.951355,609.646057 491.280121,613.350891 
	C491.719055,618.297668 495.623596,618.677185 499.365173,618.833252 
	C503.304779,618.997437 507.256531,618.869934 511.149414,618.869934 
	C511.962372,632.679810 513.675537,631.541504 500.675934,635.086365 
	C484.978729,639.366821 473.232147,632.842773 470.660492,618.287720 
	C469.455414,611.466980 470.010254,603.989746 471.410614,597.146301 
	C472.973236,589.509949 478.544769,584.636658 486.494385,582.909058 
	C496.719940,580.686707 504.332306,583.980591 509.674408,593.054260 
	C512.030029,597.055420 516.020996,598.059814 519.490662,596.157593 
	C523.462769,593.979980 524.184937,590.285706 522.473328,586.746704 
	C520.785461,583.256714 518.470520,579.645447 515.485718,577.279541 
	C501.182251,565.941650 473.595856,569.004456 462.325470,583.356689 
	C452.298706,596.125183 451.683197,610.724121 456.911774,625.481934 
	C462.134033,640.221802 473.862946,646.533691 489.719788,647.913269 
M777.957886,647.791260 
	C783.040100,646.406433 783.802185,642.374451 783.836731,638.003845 
	C783.896851,630.405518 783.853516,622.806274 783.853516,615.502991 
	C793.965149,613.022644 800.294434,617.105774 804.929321,624.917969 
	C808.664978,631.214417 812.393860,637.524780 816.414490,643.638977 
	C819.230469,647.921265 823.666260,649.197937 827.165344,647.308289 
	C831.187988,645.135925 831.828613,642.260071 829.311279,636.609192 
	C825.292969,627.588440 819.938232,619.517334 811.546326,613.185608 
	C813.599060,612.325073 815.111206,611.710327 816.608154,611.060486 
	C826.312195,606.847778 830.440735,600.431458 829.589417,590.903931 
	C828.698608,580.935608 823.183105,573.863464 812.785461,572.849609 
	C800.253723,571.627563 787.541382,572.037720 774.911621,572.168091 
	C770.857056,572.209961 768.827942,575.404053 768.816650,579.398376 
	C768.759277,599.717041 768.681213,620.036743 768.850586,640.354126 
	C768.896240,645.829529 771.411072,647.743958 777.957886,647.791260 
M1142.869507,573.381897 
	C1130.768433,572.924866 1118.669312,572.227722 1106.565430,572.132568 
	C1101.914673,572.095947 1100.076294,575.935730 1100.056030,580.129272 
	C1099.962036,599.617920 1099.942505,619.108276 1100.109619,638.596130 
	C1100.155762,643.961914 1102.912720,646.770203 1108.185669,646.773010 
	C1118.166016,646.778381 1128.177612,646.730103 1138.118042,645.955688 
	C1147.771851,645.203613 1154.812012,639.805664 1159.396973,631.320312 
	C1164.540039,621.801819 1164.913574,611.494202 1163.566772,601.149109 
	C1161.923340,588.524353 1156.517700,578.298828 1142.869507,573.381897 
M756.406494,641.980408 
	C756.984436,636.973206 754.287292,634.998596 749.721375,634.853333 
	C747.225647,634.773926 744.725464,634.831848 742.227295,634.831604 
	C732.959106,634.830627 723.690918,634.831238 714.396362,634.831238 
	C714.396362,627.264709 714.396362,620.387024 714.396362,613.151917 
	C725.078125,613.151917 735.381836,613.097900 745.684387,613.179138 
	C749.680908,613.210632 752.209595,611.660950 752.231506,607.478455 
	C752.253113,603.356628 749.274780,602.284851 745.847473,602.018982 
	C744.357056,601.903381 742.851135,601.982971 741.352234,601.982727 
	C732.407288,601.981018 723.462341,601.981812 714.428345,601.981812 
	C714.428345,595.578735 714.428345,589.723877 714.428345,583.544861 
	C720.989624,583.544861 727.141968,583.574280 733.293945,583.535828 
	C738.453979,583.503601 743.615112,583.447632 748.772705,583.297485 
	C752.559998,583.187256 755.266846,581.700867 755.220276,577.378723 
	C755.171814,572.878784 752.059265,571.871338 748.449829,571.854797 
	C734.793884,571.792297 721.136353,571.740601 707.481812,571.896912 
	C701.522400,571.965088 698.907593,574.688965 698.886414,580.530334 
	C698.817688,599.516052 698.818237,618.502502 698.888855,637.488281 
	C698.913269,644.048767 701.293091,646.664490 707.912231,646.763611 
	C721.565552,646.968018 735.229614,647.034119 748.875000,646.648438 
	C751.344238,646.578735 753.744934,644.079346 756.406494,641.980408 
M953.057495,604.530701 
	C952.887451,605.000122 952.728455,605.473938 952.545776,605.938477 
	C948.405640,616.466553 944.123718,626.941833 940.183838,637.544312 
	C938.421692,642.286377 940.137329,645.926331 944.096497,647.496643 
	C948.044556,649.062561 951.422241,647.405151 953.491760,642.639526 
	C955.014282,639.133545 956.037537,635.390930 957.780334,632.010010 
	C958.497437,630.618835 960.488464,629.065735 961.950989,629.013489 
	C969.939941,628.728088 977.951843,628.712219 985.937988,629.040222 
	C987.534180,629.105774 989.684570,630.727844 990.481384,632.218994 
	C992.430237,635.866150 993.331238,640.102661 995.461060,643.612122 
	C996.651611,645.573914 999.420105,647.622498 1001.536926,647.687134 
	C1003.700745,647.753235 1007.251160,645.870544 1007.838928,644.071350 
	C1008.758850,641.255615 1008.456665,637.496948 1007.350647,634.651367 
	C1000.119934,616.048218 992.544006,597.579041 985.056152,579.076050 
	C983.041016,574.096436 979.816772,570.512512 973.993835,570.517212 
	C968.125854,570.522034 965.028992,574.219360 963.050842,579.208069 
	C959.800659,587.404602 956.570496,595.609009 953.057495,604.530701 
M543.512878,645.001953 
	C545.287537,640.703064 546.829041,636.283386 548.961060,632.169739 
	C549.724365,630.696960 551.878479,629.103455 553.458801,629.037903 
	C561.276245,628.713684 569.118713,629.034241 576.942444,628.798828 
	C579.855347,628.711182 581.013062,629.880432 581.917419,632.391846 
	C583.379700,636.452881 585.064453,640.449646 586.915100,644.350220 
	C588.519165,647.731079 591.926636,649.038025 594.841309,647.445068 
	C597.176208,646.168823 598.781921,643.088623 600.015747,640.480042 
	C600.572632,639.302612 599.646057,637.242126 599.039368,635.723450 
	C591.388306,616.572021 583.736206,597.420471 575.929077,578.332458 
	C573.973755,573.551758 570.497192,570.340576 564.875671,570.505066 
	C559.476807,570.662964 556.441223,573.959900 554.558167,578.588806 
	C552.238892,584.289917 550.019226,590.031555 547.765198,595.759094 
	C542.405762,609.377319 537.027527,622.988342 531.710938,636.623291 
	C530.286804,640.275696 530.025452,643.922913 533.638977,646.528381 
	C536.914246,648.890015 540.175964,648.611084 543.512878,645.001953 
M1032.068848,414.703979 
	C1040.678955,408.185547 1044.495728,399.812561 1041.924683,389.019226 
	C1039.651367,379.475342 1030.523193,371.678345 1021.011841,371.084473 
	C1011.008240,370.459900 1000.028748,377.010071 996.866394,385.489136 
	C993.052002,395.716675 995.813538,406.540314 1004.011597,413.493866 
	C1011.572144,419.906647 1021.748657,420.484528 1032.068848,414.703979 
M911.432373,406.891663 
	C919.248413,418.613922 933.104614,422.003021 944.448853,414.967285 
	C955.186157,408.307922 958.748413,393.883209 952.337524,383.022980 
	C945.487610,371.418884 931.617310,367.666351 919.901062,374.247467 
	C908.640625,380.572571 904.902344,394.122131 911.432373,406.891663 
M994.869995,424.759888 
	C989.500732,417.454193 982.321289,414.213928 973.257385,414.855133 
	C963.181824,415.567902 954.222900,422.970123 952.160461,432.518372 
	C949.872131,443.112427 954.689453,454.364014 963.552063,459.124695 
	C973.396729,464.412903 984.741028,462.737915 992.465149,454.855804 
	C1000.115845,447.048645 1001.176697,435.847900 994.869995,424.759888 
M986.818115,330.508789 
	C985.135193,329.811432 983.499695,328.952576 981.761780,328.442657 
	C969.544617,324.858154 955.830566,332.639069 952.379089,345.050842 
	C948.848145,357.748230 956.418762,370.934784 969.095520,374.167725 
	C979.981262,376.943939 992.489563,371.425293 997.025879,361.845032 
	C1002.127930,351.069763 998.283203,338.620758 986.818115,330.508789 
M883.615051,574.574829 
	C883.356873,575.528809 882.875610,576.482239 882.873230,577.436890 
	C882.822388,598.065857 882.783020,618.695007 882.847839,639.323792 
	C882.863403,644.282349 886.078491,646.592896 890.593628,646.662415 
	C903.399841,646.859558 916.212463,646.902283 929.018250,646.712097 
	C932.939331,646.653748 936.414856,644.974243 936.055969,640.130432 
	C935.711304,635.479187 932.280029,634.247559 928.282532,634.177734 
	C923.292480,634.090576 918.299683,634.153015 913.308105,634.152222 
	C908.232544,634.151367 903.156921,634.152039 897.897034,634.152039 
	C897.897034,622.963379 897.908142,612.656067 897.893433,602.348755 
	C897.882263,594.529175 897.971802,586.705688 897.746765,578.891724 
	C897.648926,575.492859 896.671631,572.056824 892.801331,571.060364 
	C889.472839,570.203308 886.119629,570.317871 883.615051,574.574829 
M839.738281,627.028320 
	C847.692383,627.028320 855.646423,627.028320 863.714966,627.028320 
	C863.714966,623.765442 863.714966,621.052124 863.714966,618.326294 
	C854.656006,618.326294 845.932434,618.326294 836.088318,618.326294 
	C837.118347,621.632996 837.953552,624.314270 839.738281,627.028320 
z"/>
<path fill="#13C1E8" opacity="1.000000" stroke="none" 
	d="
M867.109741,289.756805 
	C864.950317,288.235779 863.000244,285.982391 861.046997,285.979614 
	C778.404236,285.862579 695.756531,285.447815 613.119995,286.212769 
	C570.971619,286.602875 539.824524,307.318909 521.581665,344.913605 
	C504.409851,380.301331 509.206970,423.633759 535.340393,455.286133 
	C555.938416,480.234131 582.715698,491.581818 614.582458,491.974945 
	C627.207336,492.130707 639.835693,492.000519 652.734253,492.000519 
	C652.734253,499.023163 652.734253,505.126099 652.734253,512.126648 
	C650.252625,512.126648 647.671692,512.037231 645.098572,512.140991 
	C626.594971,512.886841 608.120361,512.950867 589.822083,509.527069 
	C555.520752,503.108856 529.049744,484.980896 510.521179,455.541840 
	C476.169952,400.962921 489.401276,328.837769 540.922119,290.023590 
	C560.592957,275.204254 583.047485,267.121918 607.647034,266.160553 
	C627.105103,265.400116 646.608032,265.714874 666.091187,265.684143 
	C731.571838,265.580902 797.052673,265.562592 862.532898,265.339691 
	C864.419128,265.333282 866.997742,263.863617 868.056519,262.277313 
	C871.930847,256.472382 875.416687,250.394592 878.798706,244.281174 
	C880.172363,241.798111 881.721741,240.734665 884.656006,240.787125 
	C896.316589,240.995651 907.983337,240.858154 919.643616,241.076859 
	C921.145142,241.105011 923.284485,242.071854 924.005554,243.276169 
	C930.160583,253.555954 936.163330,263.932465 941.909668,274.445129 
	C942.736145,275.957123 942.640747,278.721069 941.801880,280.273132 
	C936.578430,289.936981 930.973877,299.393982 925.604309,308.980316 
	C923.994995,311.853516 922.081726,313.207825 918.507874,313.117584 
	C907.351196,312.835907 896.180969,312.894104 885.020508,313.086243 
	C881.913391,313.139709 880.248230,312.053802 878.773254,309.409088 
	C875.125610,302.868835 871.157166,296.507477 867.109741,289.756805 
M917.319519,271.226410 
	C914.245483,265.401917 911.739746,260.291321 902.939270,260.520935 
	C894.869019,260.731476 889.727295,262.394012 887.208435,270.204834 
	C886.360352,272.834686 883.732605,275.859680 884.421753,277.827332 
	C886.204529,282.917694 888.816589,287.998047 892.275513,292.085419 
	C893.693054,293.760529 898.236694,292.487610 901.194946,293.217529 
	C910.460815,295.503906 913.970154,289.506897 917.596680,282.817291 
	C919.713928,278.911652 920.594604,275.555969 917.319519,271.226410 
z"/>
<path fill="#13C1E8" opacity="1.000000" stroke="none" 
	d="
M984.086548,285.266571 
	C977.626892,285.270874 971.653687,285.270874 965.339844,285.270874 
	C965.339844,278.891418 965.339844,272.663452 965.339844,265.933044 
	C968.060242,265.704865 970.659668,265.362213 973.266663,265.287750 
	C995.281067,264.659088 1017.222046,264.601257 1038.708496,270.743622 
	C1062.830933,277.639557 1083.015015,290.455322 1098.672241,310.083679 
	C1119.921143,336.722137 1129.363892,367.245483 1125.725586,401.044037 
	C1121.244019,442.676880 1100.339233,474.363434 1064.393799,495.931183 
	C1041.877686,509.441132 1016.898560,512.588135 991.286926,512.574585 
	C916.289307,512.534912 841.290588,512.583435 766.295410,512.103516 
	C756.396729,512.040161 749.291931,513.988770 745.752075,523.810913 
	C745.198486,525.347107 743.677673,526.571838 743.268738,528.116577 
	C741.413879,535.123352 736.654358,536.435303 730.102783,536.110535 
	C720.462097,535.632507 710.780762,535.880981 701.118469,535.981201 
	C697.875671,536.014832 696.043396,534.675049 694.474976,531.858215 
	C689.129639,522.258362 683.330627,512.907654 678.134155,503.231262 
	C677.110840,501.325745 677.122253,497.919861 678.152161,496.014374 
	C683.613403,485.910461 689.488159,476.026245 695.409912,466.180328 
	C696.107666,465.020081 697.956116,463.909576 699.296753,463.878571 
	C711.458130,463.597504 723.626953,463.433777 735.788330,463.608154 
	C737.398315,463.631226 739.503357,465.407440 740.482056,466.943329 
	C744.864319,473.820557 749.036316,480.840118 753.044006,487.943817 
	C754.818909,491.089783 757.054382,492.074890 760.660339,492.072052 
	C829.826843,492.017731 898.993469,492.170563 968.159912,492.117828 
	C983.972839,492.105774 999.911316,492.639709 1015.573853,490.927185 
	C1059.190308,486.158234 1093.364014,455.059875 1103.477783,412.344971 
	C1114.445801,366.021637 1092.644287,318.336060 1050.381104,296.447510 
	C1034.310181,288.124176 1016.851807,285.901031 999.071228,285.370758 
	C994.241699,285.226715 989.405945,285.292664 984.086548,285.266571 
M702.179688,493.654358 
	C700.409668,496.715668 698.680847,499.733673 700.849854,503.389008 
	C702.798523,506.672974 704.483826,510.114227 706.457703,513.381958 
	C708.579895,516.895081 726.017029,517.228149 728.292236,513.793091 
	C733.572510,505.820953 738.612671,498.295410 730.241821,488.603058 
	C726.833130,484.656311 723.986145,483.703949 719.298401,483.205994 
	C710.873413,482.311005 705.292053,484.891357 702.179688,493.654358 
z"/>
<path fill="#11C3EA" opacity="1.000000" stroke="none" 
	d="
M578.486206,390.000122 
	C578.486389,383.524597 578.486389,377.548706 578.486389,370.731201 
	C586.232788,370.731201 593.651062,370.731171 601.069397,370.731171 
	C608.554199,370.731171 616.039001,370.731201 624.246704,370.731201 
	C624.246704,355.305298 624.246704,340.534729 624.246704,325.461212 
	C638.184204,325.461212 651.393494,325.461212 665.014282,325.461212 
	C665.014282,340.342865 665.014282,354.956085 665.014282,370.335388 
	C679.615112,370.335388 693.835693,370.335388 708.447510,370.335388 
	C708.447510,384.147400 708.447510,397.190125 708.447510,410.873230 
	C694.098694,410.873230 680.023376,410.873230 665.335938,410.873230 
	C665.335938,425.617523 665.335938,439.857239 665.335938,454.423462 
	C651.516479,454.423462 638.312866,454.423462 624.344177,454.423462 
	C624.344177,439.950836 624.344177,425.866852 624.344177,411.258453 
	C608.824768,411.258453 594.057861,411.258453 578.486084,411.258453 
	C578.486084,403.998627 578.486084,397.249207 578.486206,390.000122 
z"/>
<path fill="#14C0E6" opacity="1.000000" stroke="none" 
	d="
M610.881348,594.001526 
	C610.884033,589.003967 610.796692,584.503113 610.937012,580.009460 
	C610.987366,578.399597 611.104614,576.423767 612.018738,575.271301 
	C616.434814,569.703857 622.713623,572.162109 628.317627,572.014648 
	C632.265930,571.910645 634.117065,574.582397 635.063660,578.160889 
	C638.338074,590.539185 641.690613,602.896790 645.022949,615.259705 
	C645.451355,616.848999 645.935791,618.423096 647.354675,620.245728 
	C647.874756,618.669250 648.472107,617.113464 648.902771,615.512939 
	C652.187012,603.307983 655.576660,591.128723 658.634155,578.866760 
	C659.903198,573.777649 662.819946,571.878845 667.864563,571.742249 
	C684.599915,571.289001 683.193787,574.853333 683.123230,586.241150 
	C683.011780,604.232483 683.133728,622.225220 683.039185,640.216797 
	C683.014648,644.889526 680.152222,647.907104 676.262939,647.941895 
	C672.357849,647.976807 669.612488,645.091858 669.181274,640.404724 
	C669.059570,639.082092 669.124390,637.741272 669.123291,636.408752 
	C669.112854,623.747742 669.106506,611.086731 669.099487,598.425720 
	C669.098328,596.330872 669.099243,594.236023 668.185486,592.025269 
	C665.139526,604.046814 662.096558,616.069031 659.046021,628.089417 
	C658.064209,631.958435 657.112793,635.836243 656.057007,639.685242 
	C654.837524,644.130859 652.722412,647.785950 647.437561,647.954651 
	C642.572083,648.109863 639.512451,645.524902 637.914307,639.460754 
	C634.185303,625.311768 630.651917,611.111206 627.026428,596.934875 
	C626.668274,595.534424 626.221313,594.156677 624.862305,592.853210 
	C624.862305,598.017517 624.862183,603.181763 624.862366,608.346008 
	C624.862671,618.008423 624.872314,627.670776 624.854065,637.333191 
	C624.851257,638.828125 624.913208,640.362671 624.612976,641.809998 
	C623.744568,645.996521 621.004150,648.255981 616.783325,647.910889 
	C612.810669,647.585999 611.069397,644.675049 610.971863,640.979065 
	C610.804932,634.652710 610.888794,628.319458 610.883179,621.989136 
	C610.875122,612.826477 610.881226,603.663757 610.881348,594.001526 
z"/>
<path fill="#14BEE4" opacity="1.000000" stroke="none" 
	d="
M1069.181396,606.992126 
	C1069.183838,598.000671 1069.152344,589.507446 1069.217163,581.014832 
	C1069.231079,579.204041 1069.383301,577.340332 1069.841309,575.598206 
	C1070.769043,572.070312 1073.173950,570.432373 1076.879883,570.658875 
	C1080.497314,570.880127 1082.343628,573.127747 1082.865356,576.313171 
	C1083.318726,579.079773 1083.165771,581.955994 1083.169800,584.783997 
	C1083.194092,601.770081 1083.209351,618.756226 1083.174072,635.742188 
	C1083.164429,640.383484 1083.718506,645.435181 1078.113159,647.618774 
	C1073.407959,649.451782 1068.973999,647.440491 1064.827026,641.271729 
	C1056.100708,628.290771 1047.584229,615.168640 1038.985229,602.102173 
	C1037.984497,600.581421 1037.006348,599.045837 1034.843750,597.575989 
	C1034.843750,599.235046 1034.843750,600.894043 1034.843628,602.553101 
	C1034.843018,614.043579 1034.874878,625.534302 1034.810791,637.024414 
	C1034.799805,638.995361 1034.622070,641.031189 1034.097412,642.919250 
	C1033.135742,646.379517 1030.532593,648.768677 1027.103027,647.721680 
	C1024.702271,646.988770 1022.672974,644.440125 1020.962036,642.312866 
	C1020.176819,641.336670 1020.426636,639.425293 1020.424255,637.937622 
	C1020.394836,619.286316 1020.399780,600.634949 1020.418335,581.983582 
	C1020.419495,580.823914 1020.594299,579.663147 1020.709900,578.505066 
	C1021.100098,574.597046 1023.216125,571.960754 1026.942139,570.948181 
	C1030.607544,569.952148 1034.014771,570.839355 1036.296875,574.011169 
	C1039.597534,578.598755 1042.666016,583.354736 1045.789062,588.068359 
	C1053.211182,599.270935 1060.606934,610.490845 1069.182129,621.536499 
	C1069.182129,616.854492 1069.182129,612.172546 1069.181396,606.992126 
z"/>
<path fill="#15BEE4" opacity="1.000000" stroke="none" 
	d="
M489.260040,647.888489 
	C473.862946,646.533691 462.134033,640.221802 456.911774,625.481934 
	C451.683197,610.724121 452.298706,596.125183 462.325470,583.356689 
	C473.595856,569.004456 501.182251,565.941650 515.485718,577.279541 
	C518.470520,579.645447 520.785461,583.256714 522.473328,586.746704 
	C524.184937,590.285706 523.462769,593.979980 519.490662,596.157593 
	C516.020996,598.059814 512.030029,597.055420 509.674408,593.054260 
	C504.332306,583.980591 496.719940,580.686707 486.494385,582.909058 
	C478.544769,584.636658 472.973236,589.509949 471.410614,597.146301 
	C470.010254,603.989746 469.455414,611.466980 470.660492,618.287720 
	C473.232147,632.842773 484.978729,639.366821 500.675934,635.086365 
	C513.675537,631.541504 511.962372,632.679810 511.149414,618.869934 
	C507.256531,618.869934 503.304779,618.997437 499.365173,618.833252 
	C495.623596,618.677185 491.719055,618.297668 491.280121,613.350891 
	C490.951355,609.646057 494.143402,607.219177 499.278931,607.150085 
	C504.773163,607.076111 510.276733,606.983215 515.763123,607.212708 
	C523.205994,607.524170 525.468323,609.963196 525.649780,617.375427 
	C525.727173,620.537720 525.386658,623.734680 525.731750,626.861145 
	C526.611084,634.827820 523.015320,639.600159 515.907104,642.771790 
	C507.508026,646.519348 498.843231,648.207336 489.260040,647.888489 
z"/>
<path fill="#15C0E6" opacity="1.000000" stroke="none" 
	d="
M777.566223,647.852295 
	C771.411072,647.743958 768.896240,645.829529 768.850586,640.354126 
	C768.681213,620.036743 768.759277,599.717041 768.816650,579.398376 
	C768.827942,575.404053 770.857056,572.209961 774.911621,572.168091 
	C787.541382,572.037720 800.253723,571.627563 812.785461,572.849609 
	C823.183105,573.863464 828.698608,580.935608 829.589417,590.903931 
	C830.440735,600.431458 826.312195,606.847778 816.608154,611.060486 
	C815.111206,611.710327 813.599060,612.325073 811.546326,613.185608 
	C819.938232,619.517334 825.292969,627.588440 829.311279,636.609192 
	C831.828613,642.260071 831.187988,645.135925 827.165344,647.308289 
	C823.666260,649.197937 819.230469,647.921265 816.414490,643.638977 
	C812.393860,637.524780 808.664978,631.214417 804.929321,624.917969 
	C800.294434,617.105774 793.965149,613.022644 783.853516,615.502991 
	C783.853516,622.806274 783.896851,630.405518 783.836731,638.003845 
	C783.802185,642.374451 783.040100,646.406433 777.566223,647.852295 
M809.208496,602.027222 
	C813.766602,599.635864 814.840942,595.599609 813.937012,591.007751 
	C813.062683,586.566223 809.953552,584.007446 805.492859,583.855408 
	C798.427429,583.614807 791.347717,583.791321 784.283386,583.791321 
	C784.283386,590.406067 784.283386,596.948975 784.283386,604.453369 
	C792.690002,603.724854 800.587952,603.040405 809.208496,602.027222 
z"/>
<path fill="#15C0E6" opacity="1.000000" stroke="none" 
	d="
M1143.234253,573.549805 
	C1156.517700,578.298828 1161.923340,588.524353 1163.566772,601.149109 
	C1164.913574,611.494202 1164.540039,621.801819 1159.396973,631.320312 
	C1154.812012,639.805664 1147.771851,645.203613 1138.118042,645.955688 
	C1128.177612,646.730103 1118.166016,646.778381 1108.185669,646.773010 
	C1102.912720,646.770203 1100.155762,643.961914 1100.109619,638.596130 
	C1099.942505,619.108276 1099.962036,599.617920 1100.056030,580.129272 
	C1100.076294,575.935730 1101.914673,572.095947 1106.565430,572.132568 
	C1118.669312,572.227722 1130.768433,572.924866 1143.234253,573.549805 
M1136.931030,585.150391 
	C1129.876587,584.547913 1122.822266,583.945435 1115.525269,583.322266 
	C1115.525269,601.088806 1115.525269,617.786377 1115.525269,634.592834 
	C1121.235352,634.592834 1126.552368,634.803589 1131.846069,634.543579 
	C1139.869873,634.149536 1144.592163,629.371887 1146.891602,622.048950 
	C1149.393188,614.082092 1149.365479,605.983337 1147.510864,597.868408 
	C1146.205566,592.157532 1143.062866,587.915405 1136.931030,585.150391 
z"/>
<path fill="#16C1E7" opacity="1.000000" stroke="none" 
	d="
M756.291870,642.341064 
	C753.744934,644.079346 751.344238,646.578735 748.875000,646.648438 
	C735.229614,647.034119 721.565552,646.968018 707.912231,646.763611 
	C701.293091,646.664490 698.913269,644.048767 698.888855,637.488281 
	C698.818237,618.502502 698.817688,599.516052 698.886414,580.530334 
	C698.907593,574.688965 701.522400,571.965088 707.481812,571.896912 
	C721.136353,571.740601 734.793884,571.792297 748.449829,571.854797 
	C752.059265,571.871338 755.171814,572.878784 755.220276,577.378723 
	C755.266846,581.700867 752.559998,583.187256 748.772705,583.297485 
	C743.615112,583.447632 738.453979,583.503601 733.293945,583.535828 
	C727.141968,583.574280 720.989624,583.544861 714.428345,583.544861 
	C714.428345,589.723877 714.428345,595.578735 714.428345,601.981812 
	C723.462341,601.981812 732.407288,601.981018 741.352234,601.982727 
	C742.851135,601.982971 744.357056,601.903381 745.847473,602.018982 
	C749.274780,602.284851 752.253113,603.356628 752.231506,607.478455 
	C752.209595,611.660950 749.680908,613.210632 745.684387,613.179138 
	C735.381836,613.097900 725.078125,613.151917 714.396362,613.151917 
	C714.396362,620.387024 714.396362,627.264709 714.396362,634.831238 
	C723.690918,634.831238 732.959106,634.830627 742.227295,634.831604 
	C744.725464,634.831848 747.225647,634.773926 749.721375,634.853333 
	C754.287292,634.998596 756.984436,636.973206 756.291870,642.341064 
z"/>
<path fill="#14BEE5" opacity="1.000000" stroke="none" 
	d="
M953.194702,604.170410 
	C956.570496,595.609009 959.800659,587.404602 963.050842,579.208069 
	C965.028992,574.219360 968.125854,570.522034 973.993835,570.517212 
	C979.816772,570.512512 983.041016,574.096436 985.056152,579.076050 
	C992.544006,597.579041 1000.119934,616.048218 1007.350647,634.651367 
	C1008.456665,637.496948 1008.758850,641.255615 1007.838928,644.071350 
	C1007.251160,645.870544 1003.700745,647.753235 1001.536926,647.687134 
	C999.420105,647.622498 996.651611,645.573914 995.461060,643.612122 
	C993.331238,640.102661 992.430237,635.866150 990.481384,632.218994 
	C989.684570,630.727844 987.534180,629.105774 985.937988,629.040222 
	C977.951843,628.712219 969.939941,628.728088 961.950989,629.013489 
	C960.488464,629.065735 958.497437,630.618835 957.780334,632.010010 
	C956.037537,635.390930 955.014282,639.133545 953.491760,642.639526 
	C951.422241,647.405151 948.044556,649.062561 944.096497,647.496643 
	C940.137329,645.926331 938.421692,642.286377 940.183838,637.544312 
	C944.123718,626.941833 948.405640,616.466553 952.545776,605.938477 
	C952.728455,605.473938 952.887451,605.000122 953.194702,604.170410 
M979.551270,601.956238 
	C977.831604,597.289368 976.111938,592.622437 974.392273,587.955566 
	C974.018677,588.051270 973.645081,588.146912 973.271545,588.242615 
	C969.865173,597.811279 966.458801,607.379883 962.984009,617.140747 
	C970.688904,617.140747 977.595337,617.140747 985.016174,617.140747 
	C983.162903,611.980225 981.494690,607.334961 979.551270,601.956238 
z"/>
<path fill="#14BEE4" opacity="1.000000" stroke="none" 
	d="
M543.282532,645.307556 
	C540.175964,648.611084 536.914246,648.890015 533.638977,646.528381 
	C530.025452,643.922913 530.286804,640.275696 531.710938,636.623291 
	C537.027527,622.988342 542.405762,609.377319 547.765198,595.759094 
	C550.019226,590.031555 552.238892,584.289917 554.558167,578.588806 
	C556.441223,573.959900 559.476807,570.662964 564.875671,570.505066 
	C570.497192,570.340576 573.973755,573.551758 575.929077,578.332458 
	C583.736206,597.420471 591.388306,616.572021 599.039368,635.723450 
	C599.646057,637.242126 600.572632,639.302612 600.015747,640.480042 
	C598.781921,643.088623 597.176208,646.168823 594.841309,647.445068 
	C591.926636,649.038025 588.519165,647.731079 586.915100,644.350220 
	C585.064453,640.449646 583.379700,636.452881 581.917419,632.391846 
	C581.013062,629.880432 579.855347,628.711182 576.942444,628.798828 
	C569.118713,629.034241 561.276245,628.713684 553.458801,629.037903 
	C551.878479,629.103455 549.724365,630.696960 548.961060,632.169739 
	C546.829041,636.283386 545.287537,640.703064 543.282532,645.307556 
M554.806274,615.810852 
	C561.708984,619.267944 568.788208,616.896790 576.400208,617.417542 
	C572.777039,607.522766 569.540466,598.671570 566.286621,589.826660 
	C566.080139,589.265381 565.739502,588.753479 564.901794,587.143005 
	C561.355408,597.046997 558.149963,605.998962 554.806274,615.810852 
z"/>
<path fill="#12C1E8" opacity="1.000000" stroke="none" 
	d="
M1031.739990,414.876862 
	C1021.748657,420.484528 1011.572144,419.906647 1004.011597,413.493866 
	C995.813538,406.540314 993.052002,395.716675 996.866394,385.489136 
	C1000.028748,377.010071 1011.008240,370.459900 1021.011841,371.084473 
	C1030.523193,371.678345 1039.651367,379.475342 1041.924683,389.019226 
	C1044.495728,399.812561 1040.678955,408.185547 1031.739990,414.876862 
z"/>
<path fill="#12C1E8" opacity="1.000000" stroke="none" 
	d="
M911.255493,406.558350 
	C904.902344,394.122131 908.640625,380.572571 919.901062,374.247467 
	C931.617310,367.666351 945.487610,371.418884 952.337524,383.022980 
	C958.748413,393.883209 955.186157,408.307922 944.448853,414.967285 
	C933.104614,422.003021 919.248413,418.613922 911.255493,406.558350 
z"/>
<path fill="#12C2E9" opacity="1.000000" stroke="none" 
	d="
M995.062866,425.075592 
	C1001.176697,435.847900 1000.115845,447.048645 992.465149,454.855804 
	C984.741028,462.737915 973.396729,464.412903 963.552063,459.124695 
	C954.689453,454.364014 949.872131,443.112427 952.160461,432.518372 
	C954.222900,422.970123 963.181824,415.567902 973.257385,414.855133 
	C982.321289,414.213928 989.500732,417.454193 995.062866,425.075592 
z"/>
<path fill="#12C2E9" opacity="1.000000" stroke="none" 
	d="
M987.140686,330.695557 
	C998.283203,338.620758 1002.127930,351.069763 997.025879,361.845032 
	C992.489563,371.425293 979.981262,376.943939 969.095520,374.167725 
	C956.418762,370.934784 948.848145,357.748230 952.379089,345.050842 
	C955.830566,332.639069 969.544617,324.858154 981.761780,328.442657 
	C983.499695,328.952576 985.135193,329.811432 987.140686,330.695557 
z"/>
<path fill="#15BEE4" opacity="1.000000" stroke="none" 
	d="
M883.804260,574.193115 
	C886.119629,570.317871 889.472839,570.203308 892.801331,571.060364 
	C896.671631,572.056824 897.648926,575.492859 897.746765,578.891724 
	C897.971802,586.705688 897.882263,594.529175 897.893433,602.348755 
	C897.908142,612.656067 897.897034,622.963379 897.897034,634.152039 
	C903.156921,634.152039 908.232544,634.151367 913.308105,634.152222 
	C918.299683,634.153015 923.292480,634.090576 928.282532,634.177734 
	C932.280029,634.247559 935.711304,635.479187 936.055969,640.130432 
	C936.414856,644.974243 932.939331,646.653748 929.018250,646.712097 
	C916.212463,646.902283 903.399841,646.859558 890.593628,646.662415 
	C886.078491,646.592896 882.863403,644.282349 882.847839,639.323792 
	C882.783020,618.695007 882.822388,598.065857 882.873230,577.436890 
	C882.875610,576.482239 883.356873,575.528809 883.804260,574.193115 
z"/>
<path fill="#1EBFE4" opacity="1.000000" stroke="none" 
	d="
M839.263550,627.011963 
	C837.953552,624.314270 837.118347,621.632996 836.088318,618.326294 
	C845.932434,618.326294 854.656006,618.326294 863.714966,618.326294 
	C863.714966,621.052124 863.714966,623.765442 863.714966,627.028320 
	C855.646423,627.028320 847.692383,627.028320 839.263550,627.011963 
z"/>
<path fill="#010507" opacity="1.000000" stroke="none" 
	d="
M917.514832,271.545166 
	C920.594604,275.555969 919.713928,278.911652 917.596680,282.817291 
	C913.970154,289.506897 910.460815,295.503906 901.194946,293.217529 
	C898.236694,292.487610 893.693054,293.760529 892.275513,292.085419 
	C888.816589,287.998047 886.204529,282.917694 884.421753,277.827332 
	C883.732605,275.859680 886.360352,272.834686 887.208435,270.204834 
	C889.727295,262.394012 894.869019,260.731476 902.939270,260.520935 
	C911.739746,260.291321 914.245483,265.401917 917.514832,271.545166 
z"/>
<path fill="#01070A" opacity="1.000000" stroke="none" 
	d="
M702.361206,493.337341 
	C705.292053,484.891357 710.873413,482.311005 719.298401,483.205994 
	C723.986145,483.703949 726.833130,484.656311 730.241821,488.603058 
	C738.612671,498.295410 733.572510,505.820953 728.292236,513.793091 
	C726.017029,517.228149 708.579895,516.895081 706.457703,513.381958 
	C704.483826,510.114227 702.798523,506.672974 700.849854,503.389008 
	C698.680847,499.733673 700.409668,496.715668 702.361206,493.337341 
z"/>
<path fill="#01070A" opacity="1.000000" stroke="none" 
	d="
M808.847168,602.191589 
	C800.587952,603.040405 792.690002,603.724854 784.283386,604.453369 
	C784.283386,596.948975 784.283386,590.406067 784.283386,583.791321 
	C791.347717,583.791321 798.427429,583.614807 805.492859,583.855408 
	C809.953552,584.007446 813.062683,586.566223 813.937012,591.007751 
	C814.840942,595.599609 813.766602,599.635864 808.847168,602.191589 
z"/>
<path fill="#010507" opacity="1.000000" stroke="none" 
	d="
M1137.296021,585.306152 
	C1143.062866,587.915405 1146.205566,592.157532 1147.510864,597.868408 
	C1149.365479,605.983337 1149.393188,614.082092 1146.891602,622.048950 
	C1144.592163,629.371887 1139.869873,634.149536 1131.846069,634.543579 
	C1126.552368,634.803589 1121.235352,634.592834 1115.525269,634.592834 
	C1115.525269,617.786377 1115.525269,601.088806 1115.525269,583.322266 
	C1122.822266,583.945435 1129.876587,584.547913 1137.296021,585.306152 
z"/>
<path fill="#01090D" opacity="1.000000" stroke="none" 
	d="
M979.688904,602.322998 
	C981.494690,607.334961 983.162903,611.980225 985.016174,617.140747 
	C977.595337,617.140747 970.688904,617.140747 962.984009,617.140747 
	C966.458801,607.379883 969.865173,597.811279 973.271545,588.242615 
	C973.645081,588.146912 974.018677,588.051270 974.392273,587.955566 
	C976.111938,592.622437 977.831604,597.289368 979.688904,602.322998 
z"/>
<path fill="#01090D" opacity="1.000000" stroke="none" 
	d="
M554.875366,615.380920 
	C558.149963,605.998962 561.355408,597.046997 564.901794,587.143005 
	C565.739502,588.753479 566.080139,589.265381 566.286621,589.826660 
	C569.540466,598.671570 572.777039,607.522766 576.400208,617.417542 
	C568.788208,616.896790 561.708984,619.267944 554.875366,615.380920 
z"/>
</svg>